<?xml version="1.0" encoding="UTF-8" standalone="no"?>
<!-- Created with Inkscape (http://www.inkscape.org/) -->

<svg
   width="25.4mm"
   height="128.5mm"
   viewBox="0 0 25.399999 128.5"
   version="1.1"
   id="svg1"
   inkscape:version="1.4.4 (dcaf3e7, 2026-05-05)"
   sodipodi:docname="CompaModule.svg"
   xmlns:inkscape="http://www.inkscape.org/namespaces/inkscape"
   xmlns:sodipodi="http://sodipodi.sourceforge.net/DTD/sodipodi-0.dtd"
   xmlns="http://www.w3.org/2000/svg"
   xmlns:svg="http://www.w3.org/2000/svg">
  <sodipodi:namedview
     id="namedview1"
     pagecolor="#ffffff"
     bordercolor="#000000"
     borderopacity="0.25"
     inkscape:showpageshadow="2"
     inkscape:pageopacity="0.0"
     inkscape:pagecheckerboard="false"
     inkscape:deskcolor="#d1d1d1"
     inkscape:document-units="mm"
     inkscape:zoom="1.5158907"
     inkscape:cx="-107.1977"
     inkscape:cy="200.54216"
     inkscape:window-width="1239"
     inkscape:window-height="921"
     inkscape:window-x="187"
     inkscape:window-y="33"
     inkscape:window-maximized="0"
     inkscape:current-layer="layer1"
     showgrid="true">
    <inkscape:grid
       id="grid3"
       units="px"
       originx="0"
       originy="0"
       spacingx="0.26458332"
       spacingy="0.26458334"
       empcolor="#0099e5"
       empopacity="0.30196078"
       color="#0099e5"
       opacity="0.14901961"
       empspacing="5"
       enabled="true"
       visible="true"
       dotted="false"
       snapvisiblegridlinesonly="true" />
  </sodipodi:namedview>
  <defs
     id="defs1" />
  <g
     inkscape:label="Layer 1"
     inkscape:groupmode="layer"
     id="layer1"
     style="display:inline">
    <rect
       style="fill:#ff00ff;stroke-width:0.264583"
       id="rect19"
       width="25.4"
       height="128.49998"
       x="-2.9538411e-16"
       y="-8.9351269e-15" />
    <rect
       style="fill:#ffff00;fill-rule:evenodd;stroke-width:0.374177"
       id="rect3"
       width="25.4"
       height="5.291667"
       x="-2.9538411e-16"
       y="-8.9351269e-15" />
    <rect
       style="fill:#ffff00;fill-rule:evenodd;stroke-width:0.368263"
       id="rect4"
       width="25.4"
       height="5.4687376"
       x="0"
       y="123.03126"
       ry="0" />
    <path
       style="font-size:16.0563px;font-family:Talagante;-inkscape-font-specification:'Talagante, Normal';fill:#ffff00;stroke-width:0.463894"
       d="m 9.0027773,18.233535 h 0.9152091 c 1.1881666,0 1.7983056,-0.594083 1.8785866,-1.878587 0.03211,-0.594083 0.06423,-1.412954 0.06423,-2.263938 h -1.027604 c 0,0.931265 -0.43352,1.332673 -1.364785,1.332673 -0.9473216,0 -1.3647854,-0.449576 -1.396898,-1.396898 -0.016056,-0.578027 -0.016056,-1.059716 -0.016056,-1.557461 0,-0.481689 0,-0.963378 0.016056,-1.541405 0.032113,-0.9312652 0.4495764,-1.3808416 1.396898,-1.3808416 0.883096,0 1.316617,0.4174638 1.380842,1.4129546 h 1.011547 c 0,-0.850984 -0.03211,-1.6859117 -0.06423,-2.2799947 -0.08028,-1.284504 -0.69042,-1.878587 -1.8785866,-1.878587 H 9.0027773 c -1.236335,0 -1.8304181,0.594083 -1.8625307,1.878587 -0.032113,1.1560535 -0.048169,2.5368957 -0.048169,3.8374557 0,1.284504 0.016056,2.681402 0.048169,3.837455 0.032113,1.284504 0.6261957,1.878587 1.8625307,1.878587 z m 5.8605637,0 h 0.915209 c 1.107884,0 1.830418,-0.706477 1.878587,-1.878587 0.04817,-1.123941 0.06423,-2.536895 0.06423,-3.837455 0,-1.316617 -0.01606,-2.7135148 -0.06423,-3.8374557 -0.04817,-1.1721099 -0.770703,-1.878587 -1.878587,-1.878587 h -0.915209 c -1.107885,0 -1.830418,0.7064771 -1.878587,1.878587 -0.03211,1.1239409 -0.06423,2.5208387 -0.06423,3.8374557 0,1.30056 0.03211,2.713514 0.06423,3.837455 0.04817,1.17211 0.770702,1.878587 1.878587,1.878587 z m 0.465632,-2.729571 h -0.01606 c -0.995491,0 -1.429011,-0.417463 -1.461123,-1.316616 -0.01606,-0.529858 -0.01606,-1.139997 -0.01606,-1.669855 0,-0.529858 0,-1.156054 0.01606,-1.669855 0.03211,-0.8991531 0.481689,-1.3166169 1.461123,-1.3166169 h 0.01606 c 0.979435,0 1.429011,0.4174638 1.461124,1.3166169 0.01606,0.513801 0.03211,1.139997 0.03211,1.669855 0,0.529858 -0.01606,1.139997 -0.03211,1.669855 -0.03211,0.899153 -0.481689,1.316616 -1.461124,1.316616 z m 5.491259,-8.606176 h -1.445067 c -0.289013,0 -0.43352,0.1284504 -0.43352,0.4014075 V 18.137197 h 0.963378 V 9.7076404 h 0.417464 l 0.754646,6.9042086 c 0.03211,0.272957 0.192676,0.401408 0.449576,0.401408 h 1.621687 c 0.240844,0 0.401407,-0.128451 0.43352,-0.401408 l 0.770702,-6.9042086 h 0.417464 V 18.137197 H 25.73346 V 7.2991955 c 0,-0.2729571 -0.144507,-0.4014075 -0.43352,-0.4014075 h -1.445067 c -0.256901,0 -0.401408,0.1284504 -0.43352,0.4014075 L 22.82727,13.143688 c -0.04817,0.449577 -0.224789,0.658309 -0.497746,0.658309 -0.256901,0 -0.43352,-0.208732 -0.481689,-0.658309 L 21.253752,7.2991955 C 21.22164,7.0262384 21.077133,6.897788 20.820232,6.897788 Z m 6.197735,0.4174638 V 18.137197 h 0.963378 v -3.243372 h 1.364785 c 1.284504,0 1.830418,-0.610139 1.894643,-1.894643 0.06423,-1.396898 0.06423,-2.809853 0,-4.2067506 C 31.176548,7.5079274 30.630634,6.897788 29.34613,6.897788 h -1.910699 c -0.256901,0 -0.417464,0.1445067 -0.417464,0.4174638 z m 2.488726,4.7847772 H 27.981345 V 9.7236967 h 1.525348 c 0.513802,0 0.706477,0.2087319 0.754646,0.6583083 0.03211,0.353239 0.03211,0.690421 0,1.043659 -0.04817,0.465633 -0.240844,0.674365 -0.754646,0.674365 z m 2.858026,-3.2594287 v 9.2965967 h 0.931265 v -3.243372 h 2.809853 v 3.243372 h 0.947321 V 8.8406003 c 0,-1.3808418 -0.610139,-2.03915 -1.894643,-2.03915 h -0.915209 c -1.284504,0 -1.878587,0.6583082 -1.878587,2.03915 z m 0.931265,3.2594287 v -1.17211 c 0,-0.9633778 0.449577,-1.4129542 1.412955,-1.4129542 0.947321,0 1.396898,0.4495764 1.396898,1.4129542 v 1.17211 z"
       id="text1"
       transform="scale(0.57125116,1.7505435)"
       aria-label="compa" />
    <path
       style="font-size:9.17223px;font-family:Talagante;-inkscape-font-specification:'Talagante, Normal';fill:#ffff00;stroke-width:0.265"
       d="m 15.644868,65.100594 -5.168336,2.297536 v -0.806153 l 4.075551,-1.769058 -4.075551,-1.769058 v -0.806153 l 5.168336,2.297536 z"
       id="text2"
       aria-label="&gt;" />
  </g>
</svg>
