<?xml version="1.0" encoding="UTF-8" standalone="no"?>
<!-- Created with Inkscape (http://www.inkscape.org/) -->

<svg
   width="25.4mm"
   height="128.5mm"
   viewBox="0 0 25.399999 128.5"
   version="1.1"
   id="svg1"
   inkscape:version="1.4.4 (dcaf3e7, 2026-05-05)"
   sodipodi:docname="panel.svg"
   xmlns:inkscape="http://www.inkscape.org/namespaces/inkscape"
   xmlns:sodipodi="http://sodipodi.sourceforge.net/DTD/sodipodi-0.dtd"
   xmlns="http://www.w3.org/2000/svg"
   xmlns:svg="http://www.w3.org/2000/svg">
  <sodipodi:namedview
     id="namedview1"
     pagecolor="#ffffff"
     bordercolor="#000000"
     borderopacity="0.25"
     inkscape:showpageshadow="2"
     inkscape:pageopacity="0.0"
     inkscape:pagecheckerboard="false"
     inkscape:deskcolor="#d1d1d1"
     inkscape:document-units="mm"
     inkscape:zoom="0.93372037"
     inkscape:cx="-54.620207"
     inkscape:cy="205.62901"
     inkscape:window-width="1137"
     inkscape:window-height="921"
     inkscape:window-x="79"
     inkscape:window-y="34"
     inkscape:window-maximized="0"
     inkscape:current-layer="svg1"
     showgrid="true">
    <inkscape:grid
       id="grid1"
       units="mm"
       originx="0"
       originy="0"
       spacingx="0.26458332"
       spacingy="0.26458334"
       empcolor="#0099e5"
       empopacity="0.30196078"
       color="#0099e5"
       opacity="0.14901961"
       empspacing="5"
       enabled="true"
       visible="true" />
  </sodipodi:namedview>
  <defs
     id="defs1" />
  <g
     inkscape:label="Layer 1"
     inkscape:groupmode="layer"
     id="layer1"
     style="display:inline">
    <rect
       style="fill:#ff00ff;stroke-width:0.264583"
       id="rect19"
       width="25.4"
       height="128.5"
       x="6.0125254e-05"
       y="0.00093796232" />
  </g>
  <g
     id="text1"
     style="font-size:3.175px;stroke-width:0.264583;fill:#ffff00"
     aria-label="p&#10;o&#10;p&#10;u&#10;s&#10;i&#10;n&#10;t&#10;e&#10;s">
    <path
       style="font-size:9.17222px;font-family:Talagante;-inkscape-font-specification:'Talagante, Normal';fill:#ffff00"
       d="m 5.612201,10.87148 v 6.182076 H 6.1625342 V 15.200768 H 6.942173 c 0.7337776,0 1.0456331,-0.348544 1.0823219,-1.082322 0.036689,-0.797983 0.036689,-1.605139 0,-2.403122 C 7.9878061,10.981547 7.6759506,10.633002 6.942173,10.633002 H 5.8506787 c -0.1467555,0 -0.2384777,0.08255 -0.2384777,0.238478 z m 1.4216942,2.733322 h -0.871361 v -1.357489 h 0.871361 c 0.293511,0 0.4035776,0.119239 0.4310943,0.376061 0.018345,0.201789 0.018345,0.394406 0,0.596194 -0.027517,0.265995 -0.1375833,0.385234 -0.4310943,0.385234 z"
       id="path10" />
    <path
       style="font-size:9.17222px;font-family:Talagante;-inkscape-font-specification:'Talagante, Normal';fill:#ffff00"
       d="m 6.6853508,28.573865 h 0.5228165 c 0.6328832,0 1.0456331,-0.403578 1.0731498,-1.07315 0.027517,-0.642055 0.036689,-1.449211 0.036689,-2.19216 0,-0.752122 -0.00917,-1.550106 -0.036689,-2.192161 -0.027517,-0.669572 -0.4402666,-1.07315 -1.0731498,-1.07315 H 6.6853508 c -0.6328832,0 -1.0456331,0.403578 -1.0731498,1.07315 -0.018344,0.642055 -0.036689,1.440039 -0.036689,2.192161 0,0.742949 0.018344,1.550105 0.036689,2.19216 0.027517,0.669572 0.4402666,1.07315 1.0731498,1.07315 z m 0.2659944,-1.559277 h -0.00917 c -0.5686777,0 -0.8163276,-0.238478 -0.8346721,-0.752122 -0.00917,-0.302684 -0.00917,-0.651228 -0.00917,-0.953911 0,-0.302684 0,-0.6604 0.00917,-0.953911 0.018345,-0.513645 0.2751666,-0.752122 0.8346721,-0.752122 h 0.00917 c 0.5595054,0 0.8163276,0.238477 0.834672,0.752122 0.00917,0.293511 0.018345,0.651227 0.018345,0.953911 0,0.302683 -0.00917,0.651227 -0.018345,0.953911 -0.018344,0.513644 -0.2751666,0.752122 -0.834672,0.752122 z"
       id="path11" />
    <path
       style="font-size:9.17222px;font-family:Talagante;-inkscape-font-specification:'Talagante, Normal';fill:#ffff00"
       d="m 5.612201,33.802031 v 6.182076 H 6.1625342 V 38.131319 H 6.942173 c 0.7337776,0 1.0456331,-0.348545 1.0823219,-1.082322 0.036689,-0.797984 0.036689,-1.605139 0,-2.403122 C 7.9878061,33.912097 7.6759506,33.563553 6.942173,33.563553 H 5.8506787 c -0.1467555,0 -0.2384777,0.08255 -0.2384777,0.238478 z m 1.4216942,2.733321 h -0.871361 v -1.357488 h 0.871361 c 0.293511,0 0.4035776,0.119238 0.4310943,0.376061 0.018345,0.201788 0.018345,0.394405 0,0.596194 -0.027517,0.265994 -0.1375833,0.385233 -0.4310943,0.385233 z"
       id="path12" />
    <path
       style="font-size:9.17222px;font-family:Talagante;-inkscape-font-specification:'Talagante, Normal';fill:#ffff00"
       d="m 6.6853508,51.504416 h 0.5228165 c 0.7337777,0 1.082322,-0.339373 1.082322,-1.07315 V 45.028828 H 7.7401561 v 4.063294 c 0,0.541161 -0.2568221,0.797983 -0.7888109,0.797983 -0.5319888,0 -0.788811,-0.256822 -0.788811,-0.797983 V 45.028828 H 5.612201 v 5.402438 c 0,0.733777 0.3393722,1.07315 1.0731498,1.07315 z"
       id="path13" />
    <path
       style="font-size:9.17222px;font-family:Talagante;-inkscape-font-specification:'Talagante, Normal';fill:#ffff00"
       d="M 6.6303175,62.969691 H 7.153134 c 0.6695721,0 1.0089442,-0.339372 1.0731498,-1.07315 0.036689,-0.440266 0.036689,-0.853016 0,-1.284111 C 8.1712505,59.924514 7.8043617,59.585142 7.070584,59.548453 l -0.1834444,-0.0092 c -0.541161,-0.02752 -0.7979831,-0.256823 -0.7979831,-0.715434 0,-0.559505 0.2568221,-0.825499 0.7979831,-0.825499 0.4861277,0 0.7429499,0.256822 0.8071554,0.816327 h 0.5503332 c 0.00917,-0.394405 0,-0.816327 -0.018344,-1.302455 C 8.1895949,56.778442 7.8502228,56.43907 7.153134,56.43907 H 6.6303175 c -0.6695721,0 -1.0181165,0.339372 -1.082322,1.07315 -0.045861,0.467783 -0.045861,0.90805 0,1.394177 0.064205,0.752122 0.4310943,1.128183 1.1465275,1.164872 l 0.1926166,0.0092 c 0.5595055,0.02752 0.8163276,0.210961 0.8163276,0.577849 0,0.513645 -0.2568221,0.752122 -0.8163276,0.752122 -0.4861276,0 -0.7429498,-0.256822 -0.8163276,-0.807155 H 5.5204788 c 0,0.587022 0.00917,0.999772 0.027517,1.293283 0.045861,0.733778 0.3944055,1.07315 1.082322,1.07315 z"
       id="path14" />
    <path
       style="font-size:9.17222px;font-family:Talagante;-inkscape-font-specification:'Talagante, Normal';fill:#ffff00"
       d="m 5.7130954,74.379933 h 2.1921607 c 0.1559277,0 0.2384777,-0.08255 0.2384777,-0.238478 V 73.0041 c 0,-0.155928 -0.08255,-0.238478 -0.2384777,-0.238478 H 7.070584 v -3.191933 h 0.8346721 c 0.1559277,0 0.2384777,-0.08255 0.2384777,-0.238477 v -1.137356 c 0,-0.155927 -0.08255,-0.238477 -0.2384777,-0.238477 H 5.7130954 c -0.1559277,0 -0.2384777,0.08255 -0.2384777,0.238477 v 1.137356 c 0,0.155927 0.08255,0.238477 0.2384777,0.238477 H 6.529423 v 3.191933 H 5.7130954 c -0.1559277,0 -0.2384777,0.08255 -0.2384777,0.238478 v 1.137355 c 0,0.155928 0.08255,0.238478 0.2384777,0.238478 z"
       id="path15" />
    <path
       style="font-size:9.17222px;font-family:Talagante;-inkscape-font-specification:'Talagante, Normal';fill:#ffff00"
       d="m 5.612201,79.663132 v 6.182076 h 0.5503332 l 0.00917,-4.815415 h 0.293511 l 0.5595054,4.595282 c 0.018344,0.146755 0.1008945,0.220133 0.24765,0.220133 h 0.8438442 c 0.1467556,0 0.2384778,-0.08255 0.2384778,-0.238478 V 79.424654 H 7.8043617 v 4.393493 c 0,0.128412 -0.036689,0.192617 -0.1284111,0.192617 -0.091722,0 -0.1284111,-0.06421 -0.1467555,-0.192617 L 6.9788618,79.644787 C 6.9605174,79.498032 6.8779674,79.424654 6.7312119,79.424654 H 5.8506787 c -0.1467555,0 -0.2384777,0.08255 -0.2384777,0.238478 z"
       id="path16" />
    <path
       style="font-size:9.17222px;font-family:Talagante;-inkscape-font-specification:'Talagante, Normal';fill:#ffff00"
       d="m 6.5019064,97.310483 h 0.5503332 v -4.824587 h 0.8254998 c 0.1467555,0 0.2384777,-0.09172 0.2384777,-0.238478 v -1.119011 c 0,-0.146756 -0.091722,-0.238478 -0.2384777,-0.238478 H 5.6672343 c -0.1467555,0 -0.2384777,0.09172 -0.2384777,0.238478 v 1.119011 c 0,0.146755 0.08255,0.238478 0.2384777,0.238478 h 0.8346721 z"
       id="path17" />
    <path
       style="font-size:9.17222px;font-family:Talagante;-inkscape-font-specification:'Talagante, Normal';fill:#ffff00"
       d="m 5.8506787,108.77576 h 1.9903718 c 0.1467556,0 0.2384778,-0.0826 0.2384778,-0.23848 v -1.12818 c 0,-0.14676 -0.091722,-0.23848 -0.2384778,-0.23848 H 6.1441898 v -0.52282 h 1.2749386 c 0.1467555,0 0.2384777,-0.0917 0.2384777,-0.23847 v -1.11901 c 0,-0.14676 -0.091722,-0.23848 -0.2384777,-0.23848 H 6.1441898 v -1.0915 h 1.6601719 c 0.1467555,0 0.2384777,-0.0825 0.2384777,-0.23847 v -1.12819 c 0,-0.14675 -0.08255,-0.23848 -0.2384777,-0.23848 h -1.953683 c -0.1467555,0 -0.2384777,0.0825 -0.2384777,0.23848 v 5.9436 c 0,0.14676 0.091722,0.23848 0.2384777,0.23848 z"
       id="path18" />
    <path
       style="font-size:9.17222px;font-family:Talagante;-inkscape-font-specification:'Talagante, Normal';fill:#ffff00"
       d="M 6.6303175,120.29607 H 7.153134 c 0.6695721,0 1.0089442,-0.33937 1.0731498,-1.07315 0.036689,-0.44027 0.036689,-0.85302 0,-1.28411 -0.055033,-0.68792 -0.4219221,-1.02729 -1.1556998,-1.06398 l -0.1834444,-0.009 c -0.541161,-0.0275 -0.7979831,-0.25683 -0.7979831,-0.71544 0,-0.5595 0.2568221,-0.8255 0.7979831,-0.8255 0.4861277,0 0.7429499,0.25683 0.8071554,0.81633 h 0.5503332 c 0.00917,-0.3944 0,-0.81633 -0.018344,-1.30245 -0.036689,-0.73378 -0.376061,-1.07315 -1.0731498,-1.07315 H 6.6303175 c -0.6695721,0 -1.0181165,0.33937 -1.082322,1.07315 -0.045861,0.46778 -0.045861,0.90805 0,1.39417 0.064205,0.75213 0.4310943,1.12819 1.1465275,1.16488 l 0.1926166,0.009 c 0.5595055,0.0275 0.8163276,0.21096 0.8163276,0.57785 0,0.51364 -0.2568221,0.75212 -0.8163276,0.75212 -0.4861276,0 -0.7429498,-0.25682 -0.8163276,-0.80716 H 5.5204788 c 0,0.58703 0.00917,0.99978 0.027517,1.29329 0.045861,0.73378 0.3944055,1.07315 1.082322,1.07315 z"
       id="path19" />
  </g>
</svg>
