<?xml version="1.0" encoding="UTF-8" standalone="no"?>
<!-- Created with Inkscape (http://www.inkscape.org/) -->

<svg
   width="25.4mm"
   height="128.5mm"
   viewBox="0 0 25.399999 128.5"
   version="1.1"
   id="svg1"
   inkscape:version="1.4.4 (dcaf3e7, 2026-05-05)"
   sodipodi:docname="ReloModule.svg"
   xmlns:inkscape="http://www.inkscape.org/namespaces/inkscape"
   xmlns:sodipodi="http://sodipodi.sourceforge.net/DTD/sodipodi-0.dtd"
   xmlns="http://www.w3.org/2000/svg"
   xmlns:svg="http://www.w3.org/2000/svg">
  <sodipodi:namedview
     id="namedview1"
     pagecolor="#ffffff"
     bordercolor="#000000"
     borderopacity="0.25"
     inkscape:showpageshadow="2"
     inkscape:pageopacity="0.0"
     inkscape:pagecheckerboard="false"
     inkscape:deskcolor="#d1d1d1"
     inkscape:document-units="mm"
     inkscape:zoom="3.1122816"
     inkscape:cx="55.58623"
     inkscape:cy="206.44019"
     inkscape:window-width="1239"
     inkscape:window-height="1382"
     inkscape:window-x="187"
     inkscape:window-y="30"
     inkscape:window-maximized="0"
     inkscape:current-layer="layer1"
     showgrid="true">
    <inkscape:grid
       id="grid3"
       units="px"
       originx="0"
       originy="0"
       spacingx="0.26458332"
       spacingy="0.26458334"
       empcolor="#0099e5"
       empopacity="0.30196078"
       color="#0099e5"
       opacity="0.14901961"
       empspacing="5"
       enabled="true"
       visible="true"
       dotted="false"
       snapvisiblegridlinesonly="true" />
  </sodipodi:namedview>
  <defs
     id="defs1" />
  <g
     inkscape:label="Layer 1"
     inkscape:groupmode="layer"
     id="layer1"
     style="display:inline">
    <rect
       style="fill:#ff00ff;stroke-width:0.264583"
       id="rect19"
       width="25.4"
       height="128.49998"
       x="-2.9538411e-16"
       y="-8.9351269e-15" />
    <rect
       style="fill:#ffff00;fill-rule:evenodd;stroke-width:0.374177"
       id="rect3"
       width="25.4"
       height="5.291667"
       x="-2.9538411e-16"
       y="-8.9351269e-15" />
    <rect
       style="fill:#ffff00;fill-rule:evenodd;stroke-width:0.368263"
       id="rect4"
       width="25.4"
       height="5.4687376"
       x="0"
       y="123.03126"
       ry="0" />
    <path
       d="m 4.0676554,14.420562 v 18.547541 h 0.7838593 v -5.558759 h 0.3788654 c 0.2090291,0 0.326608,0.192629 0.365801,0.605408 l 0.1698362,2.063897 c 0.1437076,1.95382 0.6140232,2.889454 1.4501395,2.889454 h 0.3135443 c 0.2090293,0 0.3396725,-0.275186 0.3396725,-0.715484 v -3.247197 c 0,-0.440296 -0.1306432,-0.715482 -0.3396725,-0.715482 H 6.8111633 c -0.2090293,0 -0.3266082,-0.192631 -0.3658012,-0.60541 l -0.052257,-0.577891 c 0.9014381,-0.247667 1.4501399,-1.623597 1.5023971,-3.77005 0.026128,-1.073225 0.039191,-2.118931 0.039191,-3.192157 0,-1.073226 -0.013064,-2.146451 -0.039191,-3.192158 -0.052257,-2.008859 -0.6270874,-3.247196 -1.5415902,-3.247196 h -1.946584 c -0.2090292,0 -0.3396724,0.247668 -0.3396724,0.715484 z m 2.2731921,8.365655 H 5.9750465 4.8515147 v -4.265383 h 1.4893328 c 0.4703158,0 0.7316023,0.495335 0.7316023,1.541042 v 1.100744 c 0,1.100744 -0.2612865,1.623597 -0.7316023,1.623597 z m 2.7827019,10.181886 h 2.8349576 c 0.209029,0 0.339673,-0.247669 0.339673,-0.715484 v -3.38479 c 0,-0.440296 -0.130644,-0.715482 -0.339673,-0.715482 H 9.5416073 v -1.568561 h 1.8159407 c 0.209029,0 0.339673,-0.275186 0.339673,-0.715484 v -3.357271 c 0,-0.440296 -0.130644,-0.715482 -0.339673,-0.715482 H 9.5416073 V 18.520834 H 11.90625 c 0.209029,0 0.339672,-0.247667 0.339672,-0.715484 v -3.384788 c 0,-0.440298 -0.117578,-0.715484 -0.339672,-0.715484 H 9.1235494 c -0.2090293,0 -0.3396725,0.247668 -0.3396725,0.715484 v 17.832057 c 0,0.440298 0.1306432,0.715484 0.3396725,0.715484 z m 4.3634786,0 h 2.351578 c 0.20903,0 0.339673,-0.275186 0.339673,-0.715484 v -3.412307 c 0,-0.440298 -0.130643,-0.715484 -0.339673,-0.715484 h -1.907391 v -14.41975 h -0.783859 v 18.547541 c 0,0.440298 0.117578,0.715484 0.339672,0.715484 z m 5.003633,0.16511 h 0.744666 c 0.901439,0 1.489333,-1.210818 1.528526,-3.219676 0.03919,-1.926302 0.05226,-4.34794 0.05226,-6.576948 0,-2.256524 -0.01306,-4.650644 -0.05226,-6.576946 -0.03919,-2.008858 -0.627087,-3.219677 -1.528526,-3.219677 h -0.744666 c -0.901438,0 -1.489333,1.210819 -1.528526,3.219677 -0.02613,1.926302 -0.05225,4.320422 -0.05225,6.576946 0,2.229008 0.02613,4.650646 0.05225,6.576948 0.03919,2.008858 0.627088,3.219676 1.528526,3.219676 z m 0.378866,-4.678163 h -0.01306 c -0.809988,0 -1.162725,-0.715484 -1.188854,-2.256524 -0.01306,-0.908115 -0.01306,-1.953822 -0.01306,-2.861937 0,-0.908113 0,-1.981338 0.01306,-2.861934 0.02613,-1.541042 0.39193,-2.256526 1.188854,-2.256526 h 0.01306 c 0.796923,0 1.162724,0.715484 1.188852,2.256526 0.01306,0.880596 0.02613,1.953821 0.02613,2.861934 0,0.908115 -0.01306,1.953822 -0.02613,2.861937 -0.02613,1.54104 -0.391929,2.256524 -1.188852,2.256524 z"
       id="text5"
       style="display:inline;font-size:18.9608px;font-family:Talagante;-inkscape-font-specification:'Talagante, Normal';fill:#ffff00;stroke-width:0.546945"
       aria-label="relo" />
  </g>
</svg>
