<?xml version="1.0" encoding="UTF-8" standalone="no"?>
<!-- Created with Inkscape (http://www.inkscape.org/) -->

<svg
   width="50.799999mm"
   height="128.5mm"
   viewBox="0 0 50.799998 128.5"
   version="1.1"
   id="svg1"
   inkscape:version="1.4.4 (dcaf3e7, 2026-05-05)"
   sodipodi:docname="SecuModule.svg"
   xmlns:inkscape="http://www.inkscape.org/namespaces/inkscape"
   xmlns:sodipodi="http://sodipodi.sourceforge.net/DTD/sodipodi-0.dtd"
   xmlns="http://www.w3.org/2000/svg"
   xmlns:svg="http://www.w3.org/2000/svg">
  <sodipodi:namedview
     id="namedview1"
     pagecolor="#ffffff"
     bordercolor="#000000"
     borderopacity="0.25"
     inkscape:showpageshadow="2"
     inkscape:pageopacity="0.0"
     inkscape:pagecheckerboard="false"
     inkscape:deskcolor="#d1d1d1"
     inkscape:document-units="mm"
     inkscape:zoom="1.1913843"
     inkscape:cx="102.82157"
     inkscape:cy="289.57911"
     inkscape:window-width="1239"
     inkscape:window-height="921"
     inkscape:window-x="187"
     inkscape:window-y="33"
     inkscape:window-maximized="0"
     inkscape:current-layer="layer1"
     showgrid="true">
    <inkscape:grid
       id="grid3"
       units="px"
       originx="0"
       originy="0"
       spacingx="0.26458332"
       spacingy="0.26458334"
       empcolor="#0099e5"
       empopacity="0.30196078"
       color="#0099e5"
       opacity="0.14901961"
       empspacing="5"
       enabled="true"
       visible="true"
       dotted="false"
       snapvisiblegridlinesonly="true" />
  </sodipodi:namedview>
  <defs
     id="defs1" />
  <g
     inkscape:label="Layer 1"
     inkscape:groupmode="layer"
     id="layer1"
     style="display:inline">
    <rect
       style="fill:#ff00ff;stroke-width:0.374176"
       id="rect19"
       width="50.799999"
       height="128.49998"
       x="-2.9538411e-16"
       y="-8.9351269e-15" />
    <rect
       style="fill:#ffff00;fill-rule:evenodd;stroke-width:0.529167"
       id="rect3"
       width="50.799999"
       height="5.291667"
       x="-2.9538411e-16"
       y="-8.9351269e-15" />
    <rect
       style="fill:#ffff00;fill-rule:evenodd;stroke-width:0.520803"
       id="rect4"
       width="50.799999"
       height="5.4687376"
       x="0"
       y="123.03126"
       ry="0" />
    <path
       style="font-size:29.497px;font-family:Talagante;-inkscape-font-specification:'Talagante, @wght=400';font-variation-settings:'wght' 400;fill:#ffff00;stroke-width:0.852218"
       d="m 7.6619961,36.273658 h 1.681329 c 2.1532809,0 3.2446699,-1.091389 3.4511489,-3.451149 0.117988,-1.415856 0.117988,-2.743221 0,-4.12958 -0.176982,-2.212275 -1.356862,-3.303664 -3.7166219,-3.421652 l -0.58994,-0.0295 c -1.740323,-0.08849 -2.566239,-0.825916 -2.566239,-2.300766 0,-1.799317 0.825916,-2.65473 2.566239,-2.65473 1.5633409,0 2.3892569,0.825916 2.5957359,2.625233 h 1.76982 c 0.0295,-1.268371 0,-2.625233 -0.05899,-4.188574 -0.117988,-2.35976 -1.209377,-3.451149 -3.4511489,-3.451149 h -1.681329 c -2.153281,0 -3.2741669,1.091389 -3.4806459,3.451149 -0.147485,1.504347 -0.147485,2.920203 0,4.483544 0.206479,2.418754 1.3863589,3.628131 3.6871249,3.746119 l 0.619437,0.0295 c 1.7993169,0.08849 2.6252329,0.678431 2.6252329,1.858311 0,1.651832 -0.825916,2.418754 -2.6252329,2.418754 -1.563341,0 -2.389257,-0.825916 -2.625233,-2.595736 H 4.0928592 c 0,1.887808 0.029497,3.215173 0.088491,4.159077 0.147485,2.35976 1.2683709,3.451149 3.4806459,3.451149 z m 8.0526749,-0.176982 h 6.400849 c 0.471952,0 0.766922,-0.265473 0.766922,-0.766922 v -3.628131 c 0,-0.471952 -0.29497,-0.766922 -0.766922,-0.766922 h -5.456945 v -1.681329 h 4.100083 c 0.471952,0 0.766922,-0.29497 0.766922,-0.766922 v -3.598634 c 0,-0.471952 -0.29497,-0.766922 -0.766922,-0.766922 h -4.100083 v -3.510143 h 5.338957 c 0.471952,0 0.766922,-0.265473 0.766922,-0.766922 v -3.628131 c 0,-0.471952 -0.265473,-0.766922 -0.766922,-0.766922 h -6.282861 c -0.471952,0 -0.766922,0.265473 -0.766922,0.766922 v 19.114056 c 0,0.471952 0.29497,0.766922 0.766922,0.766922 z m 12.47722,0.176982 h 1.681329 c 2.182778,0 3.303664,-1.091389 3.451149,-3.451149 0.05899,-1.091389 0.117988,-2.595736 0.117988,-4.159077 h -1.887808 c 0,1.710826 -0.796419,2.448251 -2.507245,2.448251 -1.740323,0 -2.507245,-0.825916 -2.566239,-2.566239 -0.0295,-1.061892 -0.0295,-1.946802 -0.0295,-2.861209 0,-0.88491 0,-1.76982 0.0295,-2.831712 0.05899,-1.710826 0.825916,-2.536742 2.566239,-2.536742 1.622335,0 2.418754,0.766922 2.536742,2.595736 h 1.858311 c 0,-1.563341 -0.05899,-3.097185 -0.117988,-4.188574 -0.147485,-2.35976 -1.268371,-3.451149 -3.451149,-3.451149 h -1.681329 c -2.271269,0 -3.362658,1.091389 -3.421652,3.451149 -0.05899,2.123784 -0.08849,4.660526 -0.08849,7.049783 0,2.35976 0.0295,4.925999 0.08849,7.049783 0.05899,2.35976 1.150383,3.451149 3.421652,3.451149 z m 10.76643,0 h 1.681329 c 2.35976,0 3.480646,-1.091389 3.480646,-3.451149 V 15.448776 h -1.76982 v 13.067171 c 0,1.740323 -0.825916,2.566239 -2.536742,2.566239 -1.710826,0 -2.536742,-0.825916 -2.536742,-2.566239 V 15.448776 h -1.76982 v 17.373733 c 0,2.35976 1.091389,3.451149 3.451149,3.451149 z"
       id="text2"
       transform="scale(1.049449,0.95288102)"
       aria-label="secu" />
  </g>
</svg>
